# xmcd
#
# Track frame offsets:
#	150
#	11971
#	26645
#	40615
#	53084
#	65032
#	75265
#	89383
#	102476
#	117791
#	131880
#	144126
#	160144
#	173290
#	187514
#	201341
#	214515
#	227018
#	240104
#	253825
#
# Disc length: 3560
#
# Revision: 2
# Processed by: cddbd v1.5.1PL0 Copyright (c) Steve Scherf et al.
# Submitted via: audiograbber 1.83.01
# Normalized: r1:DSETVAR1
#
DISCID=f90de614
DTITLE=Various Artist - Down With The Blues 1
DYEAR=2003
DGENRE=Blues
TTITLE0=Atrhur 'Big Boy' Crudup - Mean Old Frisco Blues
TTITLE1=Big Joe Williams - Highway 49
TTITLE2=Muddy Waters - I be's Trroubled
TTITLE3=Mississippi John Hurt - Candy Man Blues
TTITLE4=Robert Johnson - When You Got A Good Friend
TTITLE5=Lightning Hopkins - Down Baby
TTITLE6=Bessie Smith - Lady Luck Blues
TTITLE7=Leadbelly - Goog Morning blues
TTITLE8=Muddy Waters - Country blues #1
TTITLE9=John Lee Hooker - Stomp Boogie
TTITLE10=Ma Rainey - Stormy Sea Blues
TTITLE11=Muddy Waters - Country Blues #2
TTITLE12=Memphis Minnie - Frisco Town
TTITLE13=Billie Holiday - Guess Who
TTITLE14=John Lee Hooker - Alberta
TTITLE15=Muddy Waters - Burr Clover Farm Blues
TTITLE16=Blind Boy Fuller and Sonny Terry - Train Whislte Blues
TTITLE17=Lightning Hopkins - L.A. Blues
TTITLE18=Leadbelly - New York City
TTITLE19=Big Joe Williams - Brother James
EXTD=
EXTT0=
EXTT1=
EXTT2=
EXTT3=
EXTT4=
EXTT5=
EXTT6=
EXTT7=
EXTT8=
EXTT9=
EXTT10=
EXTT11=
EXTT12=
EXTT13=
EXTT14=
EXTT15=
EXTT16=
EXTT17=
EXTT18=
EXTT19=
PLAYORDER=
